<?xml version="1.0" standalone="no"?>
<!DOCTYPE svg PUBLIC "-//W3C//DTD SVG 20010904//EN"
 "http://www.w3.org/TR/2001/REC-SVG-20010904/DTD/svg10.dtd">
<svg version="1.0" xmlns="http://www.w3.org/2000/svg"
 width="2000.000000pt" height="1500.000000pt" viewBox="0 0 2000.000000 1500.000000"
 preserveAspectRatio="xMidYMid meet">

<g transform="translate(0.000000,1500.000000) scale(0.100000,-0.100000)"
fill="#000000" stroke="none">
<path d="M0 7500 l0 -7500 10000 0 10000 0 0 7500 0 7500 -10000 0 -10000 0 0
-7500z m10171 4775 c846 -156 2958 -1341 3732 -2094 212 -207 275 -306 341
-536 82 -290 140 -737 178 -1380 16 -275 16 -1255 0 -1530 -49 -829 -133
-1347 -257 -1595 -49 -98 -109 -172 -257 -315 -769 -751 -2861 -1929 -3718
-2096 -218 -42 -394 -18 -740 99 -775 264 -2060 975 -2905 1608 -204 153 -328
257 -468 394 -202 196 -266 297 -331 525 -82 289 -138 725 -178 1375 -16 270
-16 1269 0 1540 51 830 134 1345 258 1591 148 295 787 806 1689 1351 925 558
1806 965 2300 1062 95 19 255 19 356 1z"/>
<path d="M9825 11995 c-860 -184 -3130 -1501 -3662 -2125 -79 -92 -123 -180
-162 -330 -157 -597 -214 -2052 -125 -3200 38 -497 105 -883 182 -1052 53
-117 166 -241 394 -431 710 -593 2231 -1466 3068 -1762 344 -121 482 -135 721
-72 444 117 1267 511 2059 987 927 556 1512 1014 1631 1276 138 304 222 1139
222 2214 0 1066 -83 1900 -219 2208 -104 235 -602 642 -1374 1124 -1090 680
-2200 1192 -2574 1187 -28 0 -100 -11 -161 -24z m380 -119 c763 -188 2566
-1198 3325 -1863 228 -200 310 -318 364 -528 103 -403 158 -1092 158 -1985 0
-749 -38 -1347 -113 -1770 -50 -288 -104 -425 -217 -555 -495 -570 -2514
-1762 -3439 -2030 -211 -62 -313 -66 -500 -20 -697 169 -2352 1077 -3188 1748
-335 269 -440 405 -500 644 -104 414 -157 1086 -157 1983 0 751 35 1308 108
1739 53 313 105 452 222 586 335 386 1411 1095 2451 1615 545 272 904 411
1201 464 51 9 188 -5 285 -28z"/>
<path d="M9868 9927 c-70 -40 -128 -75 -128 -78 0 -4 151 -93 335 -200 l335
-193 2 -393 3 -392 133 76 132 76 0 391 0 391 -337 195 c-185 107 -339 196
-342 197 -3 1 -63 -30 -133 -70z"/>
<path d="M9322 9611 c-178 -103 -327 -192 -333 -198 -6 -6 -8 -70 -7 -156 l3
-147 338 195 338 195 332 -191 c183 -106 335 -194 340 -196 4 -2 7 65 7 149
l-1 153 -330 190 c-181 105 -337 191 -347 192 -9 1 -162 -83 -340 -186z"/>
<path d="M10750 9165 l0 -385 -43 -28 c-24 -15 -177 -103 -339 -197 -163 -93
-294 -173 -292 -177 3 -4 61 -39 129 -78 l125 -72 338 195 337 195 3 395 2
394 -123 72 c-68 39 -127 71 -131 71 -3 0 -6 -173 -6 -385z"/>
<path d="M9321 9222 l-341 -197 2 -393 3 -394 125 -73 125 -73 5 390 5 391
333 192 c183 106 333 196 334 201 0 4 -56 40 -125 80 l-126 72 -340 -196z"/>
<path d="M9450 8905 l-125 -73 0 -397 0 -397 210 -122 c116 -67 267 -154 336
-194 l127 -73 126 73 c69 40 125 77 123 81 -1 5 -152 95 -335 200 l-332 192
-2 391 -3 391 -125 -72z"/>
<path d="M9650 8387 l0 -153 338 -195 337 -196 41 21 c22 12 177 100 342 196
l302 175 0 152 0 152 -252 -146 c-139 -80 -292 -168 -341 -195 l-87 -50 -123
70 c-67 38 -220 126 -339 195 l-218 126 0 -152z"/>
<path d="M10997 7085 c-141 -28 -259 -54 -261 -56 -1 -2 -76 -109 -165 -238
l-163 -234 21 -581 c12 -320 21 -605 21 -634 l0 -53 221 -145 220 -145 337 22
c185 12 338 23 340 24 4 4 -77 197 -87 207 -4 5 -124 3 -266 -3 l-260 -12
-127 77 -128 77 0 554 0 553 71 184 c39 100 76 188 82 194 7 6 92 30 190 53
l179 42 74 -66 c41 -37 74 -69 74 -72 0 -3 -37 -77 -82 -164 l-83 -160 35 -29
c19 -16 40 -29 45 -29 15 0 348 446 341 457 -12 21 -336 232 -353 231 -10 -1
-134 -25 -276 -54z"/>
<path d="M8747 6989 l-38 -31 -51 21 c-42 17 -71 21 -173 21 l-123 0 -4 -72
c-3 -42 0 -76 5 -80 6 -3 49 -9 97 -13 l88 -7 55 -56 55 -57 17 -744 c9 -408
13 -746 8 -751 -4 -4 -41 -20 -80 -35 -72 -28 -73 -29 -73 -65 l0 -37 218 -6
c119 -4 256 -7 303 -7 l86 0 -10 55 -10 55 -87 28 -87 27 -6 164 c-10 239 -9
541 2 541 5 0 86 11 181 25 95 14 177 22 183 18 53 -30 257 -188 261 -201 5
-16 146 -642 146 -647 0 -1 50 -10 110 -20 97 -16 112 -16 128 -3 54 46 327
292 330 297 1 4 -38 46 -87 95 l-89 89 -101 -151 -101 -151 -29 10 c-28 10
-29 12 -35 97 -3 48 -9 162 -12 253 l-6 167 -103 102 -103 103 124 94 c104 79
124 99 124 121 0 15 11 121 23 235 l23 208 -179 164 -179 165 -181 0 c-100 0
-272 3 -382 6 l-200 5 -38 -32z m649 -176 l211 -36 50 -181 50 -181 -30 -35
c-17 -19 -74 -80 -126 -136 l-96 -100 -248 16 c-136 10 -250 20 -253 23 -7 7
-54 610 -48 617 4 4 208 41 269 49 6 1 105 -15 221 -36z"/>
</g>
</svg>
